<svg t="1688720403471" class="icon" viewBox="0 0 1024 1024" version="1.1" xmlns="http://www.w3.org/2000/svg" p-id="1122" width="128" height="128"><path d="M1024 1024H0V0h1024v1024zM46.545455 977.454545h930.90909V46.545455H46.545455v930.90909z m954.181818-581.818181h-79.453091l-146.455273-146.455273 32.907636-32.907636L940.544 349.090909H1000.727273v46.545455z m-256-116.363637a93.090909 93.090909 0 1 1 93.090909-93.090909 93.090909 93.090909 0 0 1-93.090909 93.090909z m0-139.636363a46.545455 46.545455 0 1 0 46.545454 46.545454 46.545455 46.545455 0 0 0-46.545454-46.545454zM512 674.909091a93.090909 93.090909 0 1 1 93.090909-93.090909 93.090909 93.090909 0 0 1-93.090909 93.090909z m0-139.636364a46.545455 46.545455 0 1 0 46.545455 46.545455 46.545455 46.545455 0 0 0-46.545455-46.545455z m-46.545455-256a93.090909 93.090909 0 1 1 93.09091-93.090909 93.090909 93.090909 0 0 1-93.09091 93.090909z m0-139.636363a46.545455 46.545455 0 1 0 46.545455 46.545454 46.545455 46.545455 0 0 0-46.545455-46.545454z m372.363637 512a93.090909 93.090909 0 1 1 93.090909-93.090909 93.090909 93.090909 0 0 1-93.090909 93.090909z m0-139.636364a46.545455 46.545455 0 1 0 46.545454 46.545455 46.545455 46.545455 0 0 0-46.545454-46.545455z m-116.363637 372.363636a93.090909 93.090909 0 1 1 93.09091-93.090909 93.090909 93.090909 0 0 1-93.09091 93.090909z m0-139.636363a46.545455 46.545455 0 1 0 46.545455 46.545454 46.545455 46.545455 0 0 0-46.545455-46.545454zM325.818182 488.727273a93.090909 93.090909 0 1 1 93.090909-93.090909 93.090909 93.090909 0 0 1-93.090909 93.090909z m0-139.636364a46.545455 46.545455 0 1 0 46.545454 46.545455 46.545455 46.545455 0 0 0-46.545454-46.545455z m449.000727 179.362909l-279.272727-279.272727 32.907636-32.907636 279.272727 279.272727z m139.636364 488.727273l-162.909091-162.909091 32.907636-32.907636 162.909091 162.909091z m-651.636364-651.636364l-256-256 32.907636-32.907636 256 256zM442.181818 605.090909H223.092364L6.818909 388.817455l32.907636-32.907637L242.362182 558.545455H442.181818v46.545454z m-162.909091 302.545455h-46.545454v-176.546909L223.092364 721.454545H172.544L162.909091 731.089455V907.636364H116.363636v-195.816728L153.274182 674.909091h89.088L279.272727 711.819636V907.636364z m-23.272727-69.818182H139.636364v-46.545455h116.363636v46.545455z m116.363636 69.818182h-46.545454V674.909091h46.545454v232.727273z" p-id="1123" fill="#515151"></path></svg>